<svg width="622" height="141" viewBox="0 0 622 141" fill="none" xmlns="http://www.w3.org/2000/svg">
<path d="M23.03 5.271H29.708V42H23.03V25.729H7.077V42H0.399V5.271H7.077V19.952H23.03V5.271ZM44.6408 42H38.2278V14.281H44.6408V42ZM45.3298 6.172C45.3298 7.37333 44.9411 8.32733 44.1638 9.034C43.3864 9.74066 42.4678 10.094 41.4078 10.094C40.3124 10.094 39.3761 9.74066 38.5988 9.034C37.8214 8.32733 37.4328 7.37333 37.4328 6.172C37.4328 4.93533 37.8214 3.96367 38.5988 3.257C39.3761 2.55033 40.3124 2.197 41.4078 2.197C42.4678 2.197 43.3864 2.55033 44.1638 3.257C44.9411 3.96367 45.3298 4.93533 45.3298 6.172ZM91.1093 5.271V11.048H79.8203V42H73.0893V11.048H61.8003V5.271H91.1093ZM95.8847 42V1.932L102.298 0.871999V14.599C103.004 14.3517 103.817 14.1397 104.736 13.963C105.69 13.7863 106.626 13.698 107.545 13.698C109.771 13.698 111.608 14.016 113.057 14.652C114.541 15.2527 115.724 16.1183 116.608 17.249C117.491 18.3443 118.109 19.6693 118.463 21.224C118.851 22.7787 119.046 24.51 119.046 26.418V42H112.633V27.425C112.633 25.941 112.527 24.6867 112.315 23.662C112.138 22.602 111.82 21.754 111.361 21.118C110.937 20.4467 110.354 19.9697 109.612 19.687C108.87 19.369 107.951 19.21 106.856 19.21C106.008 19.21 105.142 19.2983 104.259 19.475C103.375 19.6517 102.722 19.8107 102.298 19.952V42H95.8847ZM125.195 28.273C125.195 25.835 125.549 23.6973 126.255 21.86C126.997 20.0227 127.969 18.5033 129.17 17.302C130.372 16.0653 131.75 15.1467 133.304 14.546C134.859 13.91 136.449 13.592 138.074 13.592C141.89 13.592 144.858 14.7757 146.978 17.143C149.134 19.5103 150.211 23.0437 150.211 27.743C150.211 28.0963 150.194 28.5027 150.158 28.962C150.158 29.386 150.141 29.7747 150.105 30.128H131.82C131.997 32.354 132.774 34.0853 134.152 35.322C135.566 36.5233 137.597 37.124 140.247 37.124C141.802 37.124 143.215 36.9827 144.487 36.7C145.795 36.4173 146.819 36.117 147.561 35.799L148.409 41.046C148.056 41.2227 147.561 41.417 146.925 41.629C146.325 41.8057 145.618 41.9647 144.805 42.106C144.028 42.2827 143.18 42.424 142.261 42.53C141.343 42.636 140.406 42.689 139.452 42.689C137.014 42.689 134.894 42.3357 133.092 41.629C131.29 40.887 129.806 39.88 128.64 38.608C127.474 37.3007 126.609 35.7813 126.043 34.05C125.478 32.2833 125.195 30.3577 125.195 28.273ZM143.798 25.411C143.798 24.5277 143.675 23.6973 143.427 22.92C143.18 22.1073 142.809 21.4183 142.314 20.853C141.855 20.2523 141.272 19.793 140.565 19.475C139.894 19.1217 139.081 18.945 138.127 18.945C137.138 18.945 136.272 19.1393 135.53 19.528C134.788 19.8813 134.152 20.3583 133.622 20.959C133.128 21.5597 132.739 22.2487 132.456 23.026C132.174 23.8033 131.979 24.5983 131.873 25.411H143.798ZM172.805 20.058C172.275 19.8813 171.533 19.7047 170.579 19.528C169.66 19.316 168.582 19.21 167.346 19.21C166.639 19.21 165.879 19.2807 165.067 19.422C164.289 19.5633 163.742 19.687 163.424 19.793V42H157.011V15.606C158.247 15.1467 159.784 14.7227 161.622 14.334C163.494 13.91 165.561 13.698 167.823 13.698C168.247 13.698 168.741 13.7333 169.307 13.804C169.872 13.8393 170.437 13.91 171.003 14.016C171.568 14.0867 172.116 14.1927 172.646 14.334C173.176 14.44 173.6 14.546 173.918 14.652L172.805 20.058ZM176.85 28.273C176.85 25.835 177.203 23.6973 177.91 21.86C178.652 20.0227 179.623 18.5033 180.825 17.302C182.026 16.0653 183.404 15.1467 184.959 14.546C186.513 13.91 188.103 13.592 189.729 13.592C193.545 13.592 196.513 14.7757 198.633 17.143C200.788 19.5103 201.866 23.0437 201.866 27.743C201.866 28.0963 201.848 28.5027 201.813 28.962C201.813 29.386 201.795 29.7747 201.76 30.128H183.475C183.651 32.354 184.429 34.0853 185.807 35.322C187.22 36.5233 189.252 37.124 191.902 37.124C193.456 37.124 194.87 36.9827 196.142 36.7C197.449 36.4173 198.474 36.117 199.216 35.799L200.064 41.046C199.71 41.2227 199.216 41.417 198.58 41.629C197.979 41.8057 197.272 41.9647 196.46 42.106C195.682 42.2827 194.834 42.424 193.916 42.53C192.997 42.636 192.061 42.689 191.107 42.689C188.669 42.689 186.549 42.3357 184.747 41.629C182.945 40.887 181.461 39.88 180.295 38.608C179.129 37.3007 178.263 35.7813 177.698 34.05C177.132 32.2833 176.85 30.3577 176.85 28.273ZM195.453 25.411C195.453 24.5277 195.329 23.6973 195.082 22.92C194.834 22.1073 194.463 21.4183 193.969 20.853C193.509 20.2523 192.926 19.793 192.22 19.475C191.548 19.1217 190.736 18.945 189.782 18.945C188.792 18.945 187.927 19.1393 187.185 19.528C186.443 19.8813 185.807 20.3583 185.277 20.959C184.782 21.5597 184.393 22.2487 184.111 23.026C183.828 23.8033 183.634 24.5983 183.528 25.411H195.453ZM228.508 15.129C228.508 18.0617 228.402 20.747 228.19 23.185C227.978 25.623 227.713 28.0787 227.395 30.552H222.837C222.484 28.0787 222.201 25.623 221.989 23.185C221.777 20.7117 221.671 18.0263 221.671 15.129V5.271H228.508V15.129ZM229.303 38.502C229.303 39.7387 228.897 40.7457 228.084 41.523C227.271 42.3003 226.264 42.689 225.063 42.689C223.897 42.689 222.89 42.3003 222.042 41.523C221.229 40.7457 220.823 39.7387 220.823 38.502C220.823 37.2653 221.229 36.2583 222.042 35.481C222.89 34.6683 223.897 34.262 225.063 34.262C226.264 34.262 227.271 34.6683 228.084 35.481C228.897 36.2583 229.303 37.2653 229.303 38.502ZM249.923 5.271H256.601V42H249.923V5.271ZM271.123 1.72V5.006C271.123 6.702 270.999 8.53933 270.752 10.518C270.505 12.4613 270.222 14.4223 269.904 16.401H265.823C265.47 14.4223 265.187 12.4613 264.975 10.518C264.763 8.57466 264.657 6.71966 264.657 4.953V1.72H271.123ZM294.643 27.425C294.643 24.5277 294.272 22.443 293.53 21.171C292.823 19.8637 291.48 19.21 289.502 19.21C288.795 19.21 288.018 19.263 287.17 19.369C286.322 19.475 285.686 19.5633 285.262 19.634V42H278.849V15.182C280.085 14.8287 281.693 14.493 283.672 14.175C285.686 13.857 287.806 13.698 290.032 13.698C291.94 13.698 293.494 13.9453 294.696 14.44C295.932 14.9347 296.957 15.5883 297.77 16.401C298.158 16.1183 298.653 15.818 299.254 15.5C299.854 15.182 300.526 14.8993 301.268 14.652C302.01 14.3693 302.787 14.1397 303.6 13.963C304.448 13.7863 305.296 13.698 306.144 13.698C308.299 13.698 310.066 14.016 311.444 14.652C312.857 15.2527 313.952 16.1183 314.73 17.249C315.542 18.3443 316.09 19.687 316.373 21.277C316.691 22.8317 316.85 24.5453 316.85 26.418V42H310.437V27.425C310.437 24.5277 310.083 22.443 309.377 21.171C308.67 19.8637 307.31 19.21 305.296 19.21C304.271 19.21 303.299 19.3867 302.381 19.74C301.462 20.058 300.773 20.376 300.314 20.694C300.596 21.5773 300.791 22.5137 300.897 23.503C301.003 24.4923 301.056 25.5523 301.056 26.683V42H294.643V27.425ZM337.394 42V5.271H360.979V10.942H344.072V20.005H359.124V25.57H344.072V36.329H362.251V42H337.394ZM383.925 20.058C383.395 19.8813 382.653 19.7047 381.699 19.528C380.78 19.316 379.702 19.21 378.466 19.21C377.759 19.21 376.999 19.2807 376.187 19.422C375.409 19.5633 374.862 19.687 374.544 19.793V42H368.131V15.606C369.367 15.1467 370.904 14.7227 372.742 14.334C374.614 13.91 376.681 13.698 378.943 13.698C379.367 13.698 379.861 13.7333 380.427 13.804C380.992 13.8393 381.557 13.91 382.123 14.016C382.688 14.0867 383.236 14.1927 383.766 14.334C384.296 14.44 384.72 14.546 385.038 14.652L383.925 20.058ZM400.796 0.871999C402.28 0.871999 403.587 1.01333 404.718 1.296C405.848 1.54333 406.696 1.773 407.262 1.985L406.043 7.285C405.442 7.00233 404.735 6.77266 403.923 6.596C403.145 6.41933 402.297 6.331 401.379 6.331C400.354 6.331 399.488 6.49 398.782 6.808C398.075 7.09067 397.51 7.497 397.086 8.027C396.662 8.557 396.361 9.21066 396.185 9.988C396.008 10.73 395.92 11.5427 395.92 12.426V14.281H405.99V19.634H395.92V42H389.507V12.32C389.507 8.75133 390.443 5.96 392.316 3.946C394.188 1.89666 397.015 0.871999 400.796 0.871999ZM420.479 37.495C422.458 37.495 423.96 37.389 424.984 37.177V30.075C424.631 29.969 424.119 29.863 423.447 29.757C422.776 29.651 422.034 29.598 421.221 29.598C420.515 29.598 419.79 29.651 419.048 29.757C418.342 29.863 417.688 30.0573 417.087 30.34C416.522 30.6227 416.063 31.029 415.709 31.559C415.356 32.0537 415.179 32.6897 415.179 33.467C415.179 34.9863 415.656 36.0463 416.61 36.647C417.564 37.2123 418.854 37.495 420.479 37.495ZM419.949 13.592C422.069 13.592 423.854 13.857 425.302 14.387C426.751 14.917 427.899 15.659 428.747 16.613C429.631 17.567 430.249 18.733 430.602 20.111C430.991 21.4537 431.185 22.9377 431.185 24.563V41.364C430.196 41.576 428.694 41.8233 426.68 42.106C424.702 42.424 422.458 42.583 419.949 42.583C418.289 42.583 416.769 42.424 415.391 42.106C414.013 41.788 412.83 41.2757 411.84 40.569C410.886 39.8623 410.127 38.9437 409.561 37.813C409.031 36.6823 408.766 35.2867 408.766 33.626C408.766 32.036 409.067 30.6933 409.667 29.598C410.303 28.5027 411.151 27.6193 412.211 26.948C413.271 26.2413 414.49 25.7467 415.868 25.464C417.282 25.146 418.748 24.987 420.267 24.987C420.974 24.987 421.716 25.04 422.493 25.146C423.271 25.2167 424.101 25.358 424.984 25.57V24.51C424.984 23.768 424.896 23.0613 424.719 22.39C424.543 21.7187 424.225 21.1357 423.765 20.641C423.341 20.111 422.758 19.7047 422.016 19.422C421.31 19.1393 420.409 18.998 419.313 18.998C417.829 18.998 416.469 19.104 415.232 19.316C413.996 19.528 412.989 19.7753 412.211 20.058L411.416 14.864C412.229 14.5813 413.413 14.2987 414.967 14.016C416.522 13.7333 418.183 13.592 419.949 13.592ZM439.039 15.182C440.276 14.8287 441.883 14.493 443.862 14.175C445.841 13.857 448.031 13.698 450.434 13.698C452.695 13.698 454.586 14.016 456.105 14.652C457.624 15.2527 458.826 16.1183 459.709 17.249C460.628 18.3443 461.264 19.687 461.617 21.277C462.006 22.8317 462.2 24.5453 462.2 26.418V42H455.787V27.425C455.787 25.941 455.681 24.6867 455.469 23.662C455.292 22.602 454.974 21.754 454.515 21.118C454.091 20.4467 453.49 19.9697 452.713 19.687C451.971 19.369 451.052 19.21 449.957 19.21C449.144 19.21 448.296 19.263 447.413 19.369C446.53 19.475 445.876 19.5633 445.452 19.634V42H439.039V15.182ZM482.73 42V5.271H505.944V10.942H489.408V20.323H504.089V25.994H489.408V42H482.73ZM518.975 37.495C520.953 37.495 522.455 37.389 523.48 37.177V30.075C523.126 29.969 522.614 29.863 521.943 29.757C521.271 29.651 520.529 29.598 519.717 29.598C519.01 29.598 518.286 29.651 517.544 29.757C516.837 29.863 516.183 30.0573 515.583 30.34C515.017 30.6227 514.558 31.029 514.205 31.559C513.851 32.0537 513.675 32.6897 513.675 33.467C513.675 34.9863 514.152 36.0463 515.106 36.647C516.06 37.2123 517.349 37.495 518.975 37.495ZM518.445 13.592C520.565 13.592 522.349 13.857 523.798 14.387C525.246 14.917 526.395 15.659 527.243 16.613C528.126 17.567 528.744 18.733 529.098 20.111C529.486 21.4537 529.681 22.9377 529.681 24.563V41.364C528.691 41.576 527.19 41.8233 525.176 42.106C523.197 42.424 520.953 42.583 518.445 42.583C516.784 42.583 515.265 42.424 513.887 42.106C512.509 41.788 511.325 41.2757 510.336 40.569C509.382 39.8623 508.622 38.9437 508.057 37.813C507.527 36.6823 507.262 35.2867 507.262 33.626C507.262 32.036 507.562 30.6933 508.163 29.598C508.799 28.5027 509.647 27.6193 510.707 26.948C511.767 26.2413 512.986 25.7467 514.364 25.464C515.777 25.146 517.243 24.987 518.763 24.987C519.469 24.987 520.211 25.04 520.989 25.146C521.766 25.2167 522.596 25.358 523.48 25.57V24.51C523.48 23.768 523.391 23.0613 523.215 22.39C523.038 21.7187 522.72 21.1357 522.261 20.641C521.837 20.111 521.254 19.7047 520.512 19.422C519.805 19.1393 518.904 18.998 517.809 18.998C516.325 18.998 514.964 19.104 513.728 19.316C512.491 19.528 511.484 19.7753 510.707 20.058L509.912 14.864C510.724 14.5813 511.908 14.2987 513.463 14.016C515.017 13.7333 516.678 13.592 518.445 13.592ZM556.932 18.786C556.225 19.528 555.289 20.5703 554.123 21.913C552.992 23.2557 551.773 24.7573 550.466 26.418C549.159 28.0433 547.834 29.757 546.491 31.559C545.184 33.3257 544 35.0217 542.94 36.647H557.25V42H535.202V38.025C535.979 36.6117 536.951 35.0747 538.117 33.414C539.283 31.7533 540.484 30.0927 541.721 28.432C542.958 26.736 544.177 25.1283 545.378 23.609C546.615 22.0897 547.71 20.7647 548.664 19.634H535.891V14.281H556.932V18.786ZM560.789 28.273C560.789 25.835 561.142 23.6973 561.849 21.86C562.591 20.0227 563.563 18.5033 564.764 17.302C565.965 16.0653 567.343 15.1467 568.898 14.546C570.453 13.91 572.043 13.592 573.668 13.592C577.484 13.592 580.452 14.7757 582.572 17.143C584.727 19.5103 585.805 23.0437 585.805 27.743C585.805 28.0963 585.787 28.5027 585.752 28.962C585.752 29.386 585.734 29.7747 585.699 30.128H567.414C567.591 32.354 568.368 34.0853 569.746 35.322C571.159 36.5233 573.191 37.124 575.841 37.124C577.396 37.124 578.809 36.9827 580.081 36.7C581.388 36.4173 582.413 36.117 583.155 35.799L584.003 41.046C583.65 41.2227 583.155 41.417 582.519 41.629C581.918 41.8057 581.212 41.9647 580.399 42.106C579.622 42.2827 578.774 42.424 577.855 42.53C576.936 42.636 576 42.689 575.046 42.689C572.608 42.689 570.488 42.3357 568.686 41.629C566.884 40.887 565.4 39.88 564.234 38.608C563.068 37.3007 562.202 35.7813 561.637 34.05C561.072 32.2833 560.789 30.3577 560.789 28.273ZM579.392 25.411C579.392 24.5277 579.268 23.6973 579.021 22.92C578.774 22.1073 578.403 21.4183 577.908 20.853C577.449 20.2523 576.866 19.793 576.159 19.475C575.488 19.1217 574.675 18.945 573.721 18.945C572.732 18.945 571.866 19.1393 571.124 19.528C570.382 19.8813 569.746 20.3583 569.216 20.959C568.721 21.5597 568.333 22.2487 568.05 23.026C567.767 23.8033 567.573 24.5983 567.467 25.411H579.392ZM602.25 42.53C600.342 42.4947 598.752 42.2827 597.48 41.894C596.244 41.5053 595.254 40.9577 594.512 40.251C593.77 39.509 593.24 38.608 592.922 37.548C592.64 36.4527 592.498 35.216 592.498 33.838V1.932L598.911 0.871999V32.619C598.911 33.3963 598.964 34.05 599.07 34.58C599.212 35.11 599.441 35.5693 599.759 35.958C600.077 36.3113 600.501 36.594 601.031 36.806C601.597 36.9827 602.303 37.124 603.151 37.23L602.25 42.53ZM614.805 42H608.392V14.281H614.805V42ZM615.494 6.172C615.494 7.37333 615.105 8.32733 614.328 9.034C613.55 9.74066 612.632 10.094 611.572 10.094C610.476 10.094 609.54 9.74066 608.763 9.034C607.985 8.32733 607.597 7.37333 607.597 6.172C607.597 4.93533 607.985 3.96367 608.763 3.257C609.54 2.55033 610.476 2.197 611.572 2.197C612.632 2.197 613.55 2.55033 614.328 3.257C615.105 3.96367 615.494 4.93533 615.494 6.172ZM7.52 132.27C7.01 132.27 6.41 132.24 5.72 132.18C5.06 132.15 4.37 132.09 3.65 132C2.96 131.94 2.3 131.865 1.67 131.775C1.04 131.655 0.5 131.535 0.0500002 131.415V101.4C0.59 101.25 1.19 101.13 1.85 101.04C2.51 100.92 3.185 100.83 3.875 100.77C4.595 100.68 5.285 100.62 5.945 100.59C6.635 100.56 7.265 100.545 7.835 100.545C9.515 100.545 11.105 100.68 12.605 100.95C14.135 101.22 15.47 101.67 16.61 102.3C17.75 102.93 18.65 103.77 19.31 104.82C20 105.84 20.345 107.115 20.345 108.645C20.345 110.325 19.91 111.765 19.04 112.965C18.2 114.135 17.06 114.945 15.62 115.395C16.52 115.605 17.345 115.905 18.095 116.295C18.845 116.685 19.505 117.195 20.075 117.825C20.645 118.425 21.08 119.175 21.38 120.075C21.71 120.945 21.875 121.995 21.875 123.225C21.875 126.165 20.705 128.415 18.365 129.975C16.025 131.505 12.41 132.27 7.52 132.27ZM3.11 117.06V129.345C3.56 129.405 4.235 129.48 5.135 129.57C6.035 129.63 6.95 129.66 7.88 129.66C9.26 129.66 10.595 129.57 11.885 129.39C13.205 129.21 14.36 128.88 15.35 128.4C16.34 127.92 17.135 127.26 17.735 126.42C18.335 125.58 18.635 124.5 18.635 123.18C18.635 121.98 18.425 120.99 18.005 120.21C17.585 119.4 16.985 118.77 16.205 118.32C15.425 117.84 14.465 117.51 13.325 117.33C12.215 117.15 10.97 117.06 9.59 117.06H3.11ZM3.11 114.45H9.05C10.16 114.45 11.21 114.375 12.2 114.225C13.19 114.045 14.045 113.745 14.765 113.325C15.515 112.875 16.1 112.29 16.52 111.57C16.94 110.82 17.15 109.875 17.15 108.735C17.15 107.715 16.925 106.86 16.475 106.17C16.025 105.45 15.38 104.865 14.54 104.415C13.73 103.965 12.755 103.65 11.615 103.47C10.475 103.26 9.215 103.155 7.835 103.155C6.725 103.155 5.78 103.185 5 103.245C4.25 103.305 3.62 103.38 3.11 103.47V114.45ZM35.5497 129.885C36.6897 129.885 37.6797 129.855 38.5197 129.795C39.3897 129.705 40.1247 129.6 40.7247 129.48V121.29C40.3947 121.14 39.8697 120.99 39.1497 120.84C38.4297 120.66 37.4397 120.57 36.1797 120.57C35.4597 120.57 34.7097 120.63 33.9297 120.75C33.1497 120.84 32.4297 121.065 31.7697 121.425C31.1097 121.755 30.5697 122.22 30.1497 122.82C29.7297 123.42 29.5197 124.215 29.5197 125.205C29.5197 126.075 29.6547 126.81 29.9247 127.41C30.2247 128.01 30.6297 128.49 31.1397 128.85C31.6797 129.21 32.3097 129.48 33.0297 129.66C33.7797 129.81 34.6197 129.885 35.5497 129.885ZM35.2797 108.195C36.8097 108.195 38.0997 108.42 39.1497 108.87C40.2297 109.29 41.0997 109.89 41.7597 110.67C42.4197 111.42 42.8997 112.32 43.1997 113.37C43.4997 114.42 43.6497 115.56 43.6497 116.79V131.46C43.3497 131.55 42.9147 131.655 42.3447 131.775C41.7747 131.865 41.1147 131.97 40.3647 132.09C39.6147 132.21 38.7747 132.3 37.8447 132.36C36.9447 132.45 36.0147 132.495 35.0547 132.495C33.8247 132.495 32.6847 132.36 31.6347 132.09C30.6147 131.82 29.7147 131.4 28.9347 130.83C28.1847 130.23 27.5847 129.48 27.1347 128.58C26.7147 127.65 26.5047 126.525 26.5047 125.205C26.5047 123.945 26.7447 122.865 27.2247 121.965C27.7047 121.065 28.3797 120.33 29.2497 119.76C30.1197 119.16 31.1547 118.725 32.3547 118.455C33.5547 118.185 34.8597 118.05 36.2697 118.05C36.6897 118.05 37.1247 118.08 37.5747 118.14C38.0547 118.17 38.5047 118.23 38.9247 118.32C39.3747 118.38 39.7497 118.455 40.0497 118.545C40.3797 118.605 40.6047 118.665 40.7247 118.725V117.285C40.7247 116.475 40.6647 115.695 40.5447 114.945C40.4247 114.165 40.1547 113.475 39.7347 112.875C39.3447 112.245 38.7747 111.75 38.0247 111.39C37.3047 111 36.3447 110.805 35.1447 110.805C33.4347 110.805 32.1597 110.925 31.3197 111.165C30.4797 111.405 29.8647 111.6 29.4747 111.75L29.0697 109.185C29.5797 108.945 30.3597 108.72 31.4097 108.51C32.4897 108.3 33.7797 108.195 35.2797 108.195ZM60.7402 132.495C58.9402 132.495 57.3502 132.21 55.9702 131.64C54.5902 131.07 53.4352 130.26 52.5052 129.21C51.6052 128.13 50.9152 126.855 50.4352 125.385C49.9552 123.885 49.7152 122.235 49.7152 120.435C49.7152 118.605 49.9552 116.94 50.4352 115.44C50.9452 113.94 51.6652 112.65 52.5952 111.57C53.5252 110.49 54.6502 109.665 55.9702 109.095C57.2902 108.495 58.7752 108.195 60.4252 108.195C61.6852 108.195 62.8552 108.3 63.9352 108.51C65.0452 108.72 65.9002 108.99 66.5002 109.32L65.7352 111.84C65.1352 111.54 64.4602 111.3 63.7102 111.12C62.9602 110.94 61.9552 110.85 60.6952 110.85C58.1152 110.85 56.1502 111.69 54.8002 113.37C53.4802 115.02 52.8202 117.375 52.8202 120.435C52.8202 121.815 52.9702 123.09 53.2702 124.26C53.5702 125.4 54.0502 126.39 54.7102 127.23C55.4002 128.04 56.2702 128.685 57.3202 129.165C58.4002 129.615 59.7052 129.84 61.2352 129.84C62.4952 129.84 63.5452 129.705 64.3852 129.435C65.2552 129.135 65.8852 128.88 66.2752 128.67L66.9052 131.19C66.3652 131.49 65.5102 131.775 64.3402 132.045C63.2002 132.345 62.0002 132.495 60.7402 132.495ZM78.0185 119.355C78.9485 119.985 79.9385 120.795 80.9885 121.785C82.0685 122.775 83.1185 123.855 84.1385 125.025C85.1885 126.165 86.1635 127.35 87.0635 128.58C87.9935 129.78 88.7735 130.92 89.4035 132H85.9385C85.2185 130.8 84.3935 129.63 83.4635 128.49C82.5635 127.32 81.6035 126.225 80.5835 125.205C79.5935 124.185 78.5885 123.255 77.5685 122.415C76.5785 121.575 75.6335 120.87 74.7335 120.3V132H71.8085V97.62L74.7335 97.08V119.22C75.4835 118.5 76.3235 117.675 77.2535 116.745C78.1835 115.815 79.1135 114.87 80.0435 113.91C81.0035 112.95 81.9035 112.02 82.7435 111.12C83.5835 110.22 84.3035 109.425 84.9035 108.735H88.4135C87.7235 109.455 86.9435 110.265 86.0735 111.165C85.2035 112.065 84.2885 113.01 83.3285 114C82.3985 114.96 81.4685 115.905 80.5385 116.835C79.6085 117.765 78.7685 118.605 78.0185 119.355ZM92.0346 120.345C92.0346 118.305 92.3196 116.535 92.8896 115.035C93.4896 113.505 94.2546 112.23 95.1846 111.21C96.1446 110.19 97.2246 109.44 98.4246 108.96C99.6546 108.45 100.915 108.195 102.205 108.195C105.055 108.195 107.32 109.125 109 110.985C110.71 112.845 111.565 115.71 111.565 119.58C111.565 119.82 111.55 120.06 111.52 120.3C111.52 120.54 111.505 120.765 111.475 120.975H95.1396C95.2296 123.825 95.9346 126.015 97.2546 127.545C98.5746 129.075 100.675 129.84 103.555 129.84C105.145 129.84 106.405 129.69 107.335 129.39C108.265 129.09 108.94 128.835 109.36 128.625L109.9 131.145C109.48 131.385 108.685 131.67 107.515 132C106.375 132.33 105.025 132.495 103.465 132.495C101.425 132.495 99.6846 132.195 98.2446 131.595C96.8046 130.995 95.6196 130.155 94.6896 129.075C93.7596 127.995 93.0846 126.72 92.6646 125.25C92.2446 123.75 92.0346 122.115 92.0346 120.345ZM108.55 118.5C108.49 116.07 107.92 114.18 106.84 112.83C105.76 111.48 104.23 110.805 102.25 110.805C101.2 110.805 100.255 111.015 99.4146 111.435C98.6046 111.855 97.8846 112.425 97.2546 113.145C96.6546 113.835 96.1746 114.645 95.8146 115.575C95.4846 116.505 95.2896 117.48 95.2296 118.5H108.55ZM118.083 109.545C118.953 109.305 120.123 109.035 121.593 108.735C123.063 108.435 124.863 108.285 126.993 108.285C128.763 108.285 130.233 108.54 131.403 109.05C132.603 109.56 133.548 110.295 134.238 111.255C134.958 112.185 135.468 113.31 135.768 114.63C136.068 115.95 136.218 117.405 136.218 118.995V132H133.293V119.94C133.293 118.29 133.173 116.895 132.933 115.755C132.723 114.615 132.348 113.685 131.808 112.965C131.298 112.245 130.608 111.735 129.738 111.435C128.898 111.105 127.833 110.94 126.543 110.94C125.163 110.94 123.963 111.015 122.943 111.165C121.953 111.315 121.308 111.45 121.008 111.57V132H118.083V109.545ZM162.198 131.28C161.328 131.58 160.218 131.865 158.868 132.135C157.518 132.405 155.808 132.54 153.738 132.54C152.028 132.54 150.468 132.27 149.058 131.73C147.678 131.16 146.478 130.35 145.458 129.3C144.468 128.25 143.688 126.975 143.118 125.475C142.578 123.975 142.308 122.28 142.308 120.39C142.308 118.62 142.533 117 142.983 115.53C143.463 114.03 144.153 112.74 145.053 111.66C145.953 110.58 147.048 109.74 148.338 109.14C149.658 108.54 151.158 108.24 152.838 108.24C154.368 108.24 155.688 108.465 156.798 108.915C157.938 109.335 158.763 109.74 159.273 110.13V97.62L162.198 97.08V131.28ZM159.273 112.965C159.003 112.755 158.658 112.53 158.238 112.29C157.848 112.05 157.383 111.825 156.843 111.615C156.303 111.405 155.718 111.24 155.088 111.12C154.458 110.97 153.798 110.895 153.108 110.895C151.668 110.895 150.453 111.15 149.463 111.66C148.503 112.17 147.723 112.86 147.123 113.73C146.523 114.57 146.088 115.575 145.818 116.745C145.548 117.885 145.413 119.1 145.413 120.39C145.413 123.45 146.178 125.805 147.708 127.455C149.238 129.075 151.263 129.885 153.783 129.885C155.223 129.885 156.378 129.825 157.248 129.705C158.148 129.555 158.823 129.405 159.273 129.255V112.965ZM180.808 96.765H183.598V140.325H180.808V96.765ZM227.124 116.385C227.124 119.055 226.704 121.38 225.864 123.36C225.024 125.34 223.839 126.99 222.309 128.31C220.809 129.63 219.009 130.62 216.909 131.28C214.809 131.94 212.499 132.27 209.979 132.27C208.719 132.27 207.399 132.195 206.019 132.045C204.639 131.925 203.424 131.73 202.374 131.46V101.4C203.424 101.1 204.639 100.89 206.019 100.77C207.399 100.62 208.719 100.545 209.979 100.545C212.499 100.545 214.809 100.875 216.909 101.535C219.009 102.195 220.809 103.185 222.309 104.505C223.839 105.825 225.024 107.475 225.864 109.455C226.704 111.435 227.124 113.745 227.124 116.385ZM205.434 129.3C205.614 129.33 206.064 129.39 206.784 129.48C207.534 129.57 208.719 129.615 210.339 129.615C212.589 129.615 214.554 129.315 216.234 128.715C217.914 128.085 219.324 127.2 220.464 126.06C221.604 124.92 222.459 123.54 223.029 121.92C223.599 120.27 223.884 118.425 223.884 116.385C223.884 114.345 223.599 112.515 223.029 110.895C222.459 109.275 221.604 107.895 220.464 106.755C219.324 105.615 217.914 104.745 216.234 104.145C214.554 103.515 212.589 103.2 210.339 103.2C208.719 103.2 207.534 103.245 206.784 103.335C206.064 103.425 205.614 103.485 205.434 103.515V129.3ZM232.396 120.345C232.396 118.305 232.681 116.535 233.251 115.035C233.851 113.505 234.616 112.23 235.546 111.21C236.506 110.19 237.586 109.44 238.786 108.96C240.016 108.45 241.276 108.195 242.566 108.195C245.416 108.195 247.681 109.125 249.361 110.985C251.071 112.845 251.926 115.71 251.926 119.58C251.926 119.82 251.911 120.06 251.881 120.3C251.881 120.54 251.866 120.765 251.836 120.975H235.501C235.591 123.825 236.296 126.015 237.616 127.545C238.936 129.075 241.036 129.84 243.916 129.84C245.506 129.84 246.766 129.69 247.696 129.39C248.626 129.09 249.301 128.835 249.721 128.625L250.261 131.145C249.841 131.385 249.046 131.67 247.876 132C246.736 132.33 245.386 132.495 243.826 132.495C241.786 132.495 240.046 132.195 238.606 131.595C237.166 130.995 235.981 130.155 235.051 129.075C234.121 127.995 233.446 126.72 233.026 125.25C232.606 123.75 232.396 122.115 232.396 120.345ZM248.911 118.5C248.851 116.07 248.281 114.18 247.201 112.83C246.121 111.48 244.591 110.805 242.611 110.805C241.561 110.805 240.616 111.015 239.776 111.435C238.966 111.855 238.246 112.425 237.616 113.145C237.016 113.835 236.536 114.645 236.176 115.575C235.846 116.505 235.651 117.48 235.591 118.5H248.911ZM265.464 128.85C266.094 127.56 266.739 126.09 267.399 124.44C268.059 122.76 268.689 121.035 269.289 119.265C269.919 117.465 270.489 115.665 270.999 113.865C271.539 112.035 271.989 110.325 272.349 108.735H275.274C274.734 110.865 274.134 112.965 273.474 115.035C272.814 117.105 272.109 119.13 271.359 121.11C270.639 123.09 269.874 124.995 269.064 126.825C268.284 128.655 267.519 130.38 266.769 132H263.979C263.199 130.38 262.419 128.655 261.639 126.825C260.859 124.995 260.094 123.09 259.344 121.11C258.624 119.13 257.934 117.105 257.274 115.035C256.614 112.965 256.014 110.865 255.474 108.735H258.579C258.939 110.325 259.374 112.035 259.884 113.865C260.424 115.665 260.994 117.465 261.594 119.265C262.224 121.035 262.869 122.76 263.529 124.44C264.189 126.09 264.834 127.56 265.464 128.85ZM308.235 116.385C308.235 119.055 307.845 121.41 307.065 123.45C306.285 125.49 305.22 127.2 303.87 128.58C302.55 129.93 301.005 130.95 299.235 131.64C297.465 132.33 295.59 132.675 293.61 132.675C291.63 132.675 289.755 132.33 287.985 131.64C286.215 130.95 284.655 129.93 283.305 128.58C281.985 127.2 280.935 125.49 280.155 123.45C279.375 121.41 278.985 119.055 278.985 116.385C278.985 113.715 279.375 111.375 280.155 109.365C280.935 107.325 281.985 105.63 283.305 104.28C284.655 102.9 286.215 101.865 287.985 101.175C289.755 100.485 291.63 100.14 293.61 100.14C295.59 100.14 297.465 100.485 299.235 101.175C301.005 101.865 302.55 102.9 303.87 104.28C305.22 105.63 306.285 107.325 307.065 109.365C307.845 111.375 308.235 113.715 308.235 116.385ZM304.995 116.385C304.995 114.285 304.725 112.41 304.185 110.76C303.645 109.08 302.88 107.655 301.89 106.485C300.9 105.315 299.7 104.43 298.29 103.83C296.91 103.2 295.35 102.885 293.61 102.885C291.87 102.885 290.295 103.2 288.885 103.83C287.505 104.43 286.32 105.315 285.33 106.485C284.34 107.655 283.575 109.08 283.035 110.76C282.495 112.41 282.225 114.285 282.225 116.385C282.225 118.485 282.495 120.375 283.035 122.055C283.575 123.705 284.34 125.115 285.33 126.285C286.32 127.455 287.505 128.355 288.885 128.985C290.295 129.615 291.87 129.93 293.61 129.93C295.35 129.93 296.91 129.615 298.29 128.985C299.7 128.355 300.9 127.455 301.89 126.285C302.88 125.115 303.645 123.705 304.185 122.055C304.725 120.375 304.995 118.485 304.995 116.385ZM317.839 127.815C318.109 128.025 318.439 128.25 318.829 128.49C319.249 128.73 319.729 128.955 320.269 129.165C320.809 129.375 321.394 129.555 322.024 129.705C322.654 129.825 323.314 129.885 324.004 129.885C325.444 129.885 326.644 129.645 327.604 129.165C328.594 128.655 329.389 127.98 329.989 127.14C330.589 126.27 331.024 125.265 331.294 124.125C331.564 122.955 331.699 121.725 331.699 120.435C331.699 117.375 330.934 115.035 329.404 113.415C327.874 111.765 325.849 110.94 323.329 110.94C321.889 110.94 320.719 111.015 319.819 111.165C318.949 111.285 318.289 111.42 317.839 111.57V127.815ZM317.839 140.325H314.914V109.545C315.784 109.245 316.894 108.96 318.244 108.69C319.594 108.42 321.304 108.285 323.374 108.285C325.084 108.285 326.629 108.57 328.009 109.14C329.419 109.68 330.619 110.475 331.609 111.525C332.629 112.575 333.409 113.85 333.949 115.35C334.519 116.85 334.804 118.545 334.804 120.435C334.804 122.205 334.564 123.84 334.084 125.34C333.634 126.81 332.959 128.085 332.059 129.165C331.159 130.215 330.049 131.04 328.729 131.64C327.439 132.24 325.954 132.54 324.274 132.54C322.744 132.54 321.409 132.33 320.269 131.91C319.159 131.46 318.349 131.04 317.839 130.65V140.325ZM345.919 129.93C347.599 129.93 348.979 129.66 350.059 129.12C351.169 128.55 351.724 127.605 351.724 126.285C351.724 125.655 351.619 125.115 351.409 124.665C351.229 124.215 350.914 123.81 350.464 123.45C350.014 123.09 349.414 122.745 348.664 122.415C347.944 122.085 347.044 121.695 345.964 121.245C345.094 120.885 344.269 120.525 343.489 120.165C342.709 119.775 342.019 119.34 341.419 118.86C340.819 118.35 340.339 117.75 339.979 117.06C339.619 116.37 339.439 115.53 339.439 114.54C339.439 112.65 340.144 111.12 341.554 109.95C342.994 108.78 344.959 108.195 347.449 108.195C349.039 108.195 350.344 108.33 351.364 108.6C352.414 108.87 353.149 109.11 353.569 109.32L352.894 111.93C352.534 111.75 351.919 111.51 351.049 111.21C350.209 110.91 348.964 110.76 347.314 110.76C346.654 110.76 346.024 110.835 345.424 110.985C344.854 111.105 344.344 111.315 343.894 111.615C343.444 111.885 343.084 112.245 342.814 112.695C342.544 113.115 342.409 113.64 342.409 114.27C342.409 114.9 342.529 115.44 342.769 115.89C343.009 116.34 343.354 116.745 343.804 117.105C344.284 117.435 344.854 117.75 345.514 118.05C346.204 118.35 346.984 118.68 347.854 119.04C348.754 119.4 349.609 119.775 350.419 120.165C351.259 120.525 351.994 120.975 352.624 121.515C353.254 122.025 353.764 122.655 354.154 123.405C354.544 124.125 354.739 125.04 354.739 126.15C354.739 128.25 353.944 129.84 352.354 130.92C350.794 132 348.649 132.54 345.919 132.54C343.879 132.54 342.319 132.36 341.239 132C340.159 131.67 339.439 131.415 339.079 131.235L339.844 128.58C339.934 128.64 340.129 128.745 340.429 128.895C340.729 129.015 341.134 129.165 341.644 129.345C342.154 129.495 342.754 129.63 343.444 129.75C344.164 129.87 344.989 129.93 345.919 129.93ZM371.267 96.765H374.057V140.325H371.267V96.765ZM414.073 132C413.503 130.95 412.768 129.72 411.868 128.31C410.998 126.9 410.038 125.4 408.988 123.81C407.938 122.19 406.828 120.54 405.658 118.86C404.488 117.15 403.318 115.5 402.148 113.91C401.008 112.29 399.883 110.775 398.773 109.365C397.693 107.955 396.718 106.74 395.848 105.72V132H392.833V100.815H395.263C396.793 102.525 398.428 104.505 400.168 106.755C401.938 108.975 403.663 111.255 405.343 113.595C407.023 115.905 408.583 118.17 410.023 120.39C411.493 122.61 412.693 124.545 413.623 126.195V100.815H416.638V132H414.073ZM423.163 120.345C423.163 118.305 423.448 116.535 424.018 115.035C424.618 113.505 425.383 112.23 426.312 111.21C427.273 110.19 428.353 109.44 429.553 108.96C430.783 108.45 432.043 108.195 433.333 108.195C436.183 108.195 438.448 109.125 440.128 110.985C441.838 112.845 442.693 115.71 442.693 119.58C442.693 119.82 442.678 120.06 442.648 120.3C442.648 120.54 442.633 120.765 442.603 120.975H426.268C426.358 123.825 427.063 126.015 428.383 127.545C429.703 129.075 431.803 129.84 434.683 129.84C436.273 129.84 437.533 129.69 438.463 129.39C439.393 129.09 440.068 128.835 440.488 128.625L441.028 131.145C440.608 131.385 439.813 131.67 438.643 132C437.503 132.33 436.153 132.495 434.593 132.495C432.553 132.495 430.813 132.195 429.373 131.595C427.933 130.995 426.748 130.155 425.818 129.075C424.888 127.995 424.213 126.72 423.793 125.25C423.373 123.75 423.163 122.115 423.163 120.345ZM439.678 118.5C439.618 116.07 439.048 114.18 437.968 112.83C436.888 111.48 435.358 110.805 433.378 110.805C432.328 110.805 431.383 111.015 430.543 111.435C429.733 111.855 429.013 112.425 428.383 113.145C427.783 113.835 427.303 114.645 426.943 115.575C426.613 116.505 426.418 117.48 426.358 118.5H439.678ZM451.956 108.735H461.226V111.21H451.956V123.585C451.956 124.905 452.061 125.985 452.271 126.825C452.511 127.635 452.841 128.265 453.261 128.715C453.681 129.165 454.191 129.465 454.791 129.615C455.391 129.765 456.051 129.84 456.771 129.84C458.001 129.84 458.991 129.705 459.741 129.435C460.491 129.135 461.076 128.865 461.496 128.625L462.216 131.055C461.796 131.325 461.061 131.64 460.011 132C458.961 132.33 457.821 132.495 456.591 132.495C455.151 132.495 453.936 132.315 452.946 131.955C451.986 131.565 451.206 130.995 450.606 130.245C450.036 129.465 449.631 128.505 449.391 127.365C449.151 126.225 449.031 124.875 449.031 123.315V101.895L451.956 101.355V108.735ZM481.598 108.735C481.868 110.235 482.213 111.84 482.633 113.55C483.083 115.23 483.563 116.955 484.073 118.725C484.613 120.465 485.168 122.19 485.738 123.9C486.338 125.61 486.938 127.215 487.538 128.715C488.048 127.575 488.588 126.195 489.158 124.575C489.728 122.925 490.298 121.2 490.868 119.4C491.438 117.57 491.963 115.74 492.443 113.91C492.953 112.05 493.373 110.325 493.703 108.735H496.583C495.503 113.295 494.318 117.465 493.028 121.245C491.768 125.025 490.373 128.61 488.843 132H486.098C485.648 130.95 485.168 129.78 484.658 128.49C484.178 127.17 483.668 125.775 483.128 124.305C482.618 122.805 482.108 121.245 481.598 119.625C481.118 117.975 480.653 116.295 480.203 114.585C479.753 116.295 479.273 117.975 478.763 119.625C478.283 121.245 477.773 122.805 477.233 124.305C476.723 125.775 476.213 127.17 475.703 128.49C475.223 129.78 474.758 130.95 474.308 132H471.518C469.988 128.61 468.578 125.025 467.288 121.245C466.028 117.465 464.858 113.295 463.778 108.735H466.883C467.213 110.325 467.618 112.05 468.098 113.91C468.608 115.74 469.148 117.57 469.718 119.4C470.288 121.2 470.858 122.91 471.428 124.53C472.028 126.15 472.583 127.53 473.093 128.67C473.663 127.17 474.233 125.565 474.803 123.855C475.403 122.145 475.958 120.42 476.468 118.68C476.978 116.94 477.458 115.23 477.908 113.55C478.358 111.84 478.748 110.235 479.078 108.735H481.598ZM521.351 120.39C521.351 122.22 521.081 123.885 520.541 125.385C520.031 126.885 519.296 128.16 518.336 129.21C517.406 130.26 516.296 131.085 515.006 131.685C513.716 132.255 512.291 132.54 510.731 132.54C509.171 132.54 507.746 132.255 506.456 131.685C505.166 131.085 504.041 130.26 503.081 129.21C502.151 128.16 501.416 126.885 500.876 125.385C500.366 123.885 500.111 122.22 500.111 120.39C500.111 118.56 500.366 116.895 500.876 115.395C501.416 113.895 502.151 112.62 503.081 111.57C504.041 110.49 505.166 109.665 506.456 109.095C507.746 108.495 509.171 108.195 510.731 108.195C512.291 108.195 513.716 108.495 515.006 109.095C516.296 109.665 517.406 110.49 518.336 111.57C519.296 112.62 520.031 113.895 520.541 115.395C521.081 116.895 521.351 118.56 521.351 120.39ZM518.246 120.39C518.246 117.48 517.571 115.17 516.221 113.46C514.871 111.72 513.041 110.85 510.731 110.85C508.421 110.85 506.591 111.72 505.241 113.46C503.891 115.17 503.216 117.48 503.216 120.39C503.216 123.3 503.891 125.61 505.241 127.32C506.591 129.03 508.421 129.885 510.731 129.885C513.041 129.885 514.871 129.03 516.221 127.32C517.571 125.61 518.246 123.3 518.246 120.39ZM535.617 108.285C536.577 108.285 537.477 108.36 538.317 108.51C539.187 108.66 539.787 108.81 540.117 108.96L539.532 111.48C539.292 111.36 538.797 111.24 538.047 111.12C537.327 110.97 536.367 110.895 535.167 110.895C533.907 110.895 532.887 110.985 532.107 111.165C531.357 111.345 530.862 111.495 530.622 111.615V132H527.697V109.815C528.447 109.485 529.482 109.155 530.802 108.825C532.122 108.465 533.727 108.285 535.617 108.285ZM550.738 119.355C551.668 119.985 552.658 120.795 553.708 121.785C554.788 122.775 555.838 123.855 556.858 125.025C557.908 126.165 558.883 127.35 559.783 128.58C560.713 129.78 561.493 130.92 562.123 132H558.658C557.938 130.8 557.113 129.63 556.183 128.49C555.283 127.32 554.323 126.225 553.303 125.205C552.313 124.185 551.308 123.255 550.288 122.415C549.298 121.575 548.353 120.87 547.453 120.3V132H544.528V97.62L547.453 97.08V119.22C548.203 118.5 549.043 117.675 549.973 116.745C550.903 115.815 551.833 114.87 552.763 113.91C553.723 112.95 554.623 112.02 555.463 111.12C556.303 110.22 557.023 109.425 557.623 108.735H561.133C560.443 109.455 559.663 110.265 558.793 111.165C557.923 112.065 557.008 113.01 556.048 114C555.118 114.96 554.188 115.905 553.258 116.835C552.328 117.765 551.488 118.605 550.738 119.355ZM569.733 132H566.808V108.735H569.733V132ZM570.408 101.715C570.408 102.405 570.198 102.96 569.778 103.38C569.358 103.77 568.848 103.965 568.248 103.965C567.648 103.965 567.138 103.77 566.718 103.38C566.298 102.96 566.088 102.405 566.088 101.715C566.088 101.025 566.298 100.485 566.718 100.095C567.138 99.675 567.648 99.465 568.248 99.465C568.848 99.465 569.358 99.675 569.778 100.095C570.198 100.485 570.408 101.025 570.408 101.715ZM577.487 109.545C578.357 109.305 579.527 109.035 580.997 108.735C582.467 108.435 584.267 108.285 586.397 108.285C588.167 108.285 589.637 108.54 590.807 109.05C592.007 109.56 592.952 110.295 593.642 111.255C594.362 112.185 594.872 113.31 595.172 114.63C595.472 115.95 595.622 117.405 595.622 118.995V132H592.697V119.94C592.697 118.29 592.577 116.895 592.337 115.755C592.127 114.615 591.752 113.685 591.212 112.965C590.702 112.245 590.012 111.735 589.142 111.435C588.302 111.105 587.237 110.94 585.947 110.94C584.567 110.94 583.367 111.015 582.347 111.165C581.357 111.315 580.712 111.45 580.412 111.57V132H577.487V109.545ZM618.272 129.3C618.092 129.45 617.822 129.63 617.462 129.84C617.102 130.02 616.652 130.215 616.112 130.425C615.602 130.635 615.002 130.815 614.312 130.965C613.652 131.085 612.902 131.145 612.062 131.145C610.712 131.145 609.407 130.935 608.147 130.515C606.887 130.095 605.777 129.435 604.817 128.535C603.887 127.635 603.137 126.48 602.567 125.07C601.997 123.63 601.712 121.89 601.712 119.85C601.712 118.2 601.967 116.67 602.477 115.26C602.987 113.85 603.707 112.635 604.637 111.615C605.597 110.565 606.752 109.755 608.102 109.185C609.482 108.585 611.027 108.285 612.737 108.285C614.897 108.285 616.622 108.435 617.912 108.735C619.232 109.005 620.312 109.275 621.152 109.545V130.785C621.152 134.265 620.252 136.74 618.452 138.21C616.652 139.71 613.937 140.46 610.307 140.46C608.807 140.46 607.442 140.34 606.212 140.1C605.012 139.89 603.977 139.635 603.107 139.335L603.692 136.68C604.412 137.01 605.387 137.295 606.617 137.535C607.877 137.775 609.137 137.895 610.397 137.895C613.157 137.895 615.152 137.355 616.382 136.275C617.642 135.225 618.272 133.41 618.272 130.83V129.3ZM618.227 111.57C617.717 111.42 617.057 111.285 616.247 111.165C615.437 111.015 614.282 110.94 612.782 110.94C611.522 110.94 610.397 111.165 609.407 111.615C608.447 112.035 607.622 112.65 606.932 113.46C606.242 114.24 605.717 115.185 605.357 116.295C604.997 117.375 604.817 118.575 604.817 119.895C604.817 121.425 605.027 122.745 605.447 123.855C605.867 124.935 606.407 125.82 607.067 126.51C607.757 127.2 608.537 127.71 609.407 128.04C610.277 128.34 611.162 128.49 612.062 128.49C613.382 128.49 614.582 128.295 615.662 127.905C616.772 127.515 617.627 127.065 618.227 126.555V111.57Z" fill="white"/>
</svg>
